<svg xmlns="http://www.w3.org/2000/svg" xmlns:xlink="http://www.w3.org/1999/xlink" viewBox="0 0 750 500"><defs><linearGradient id="linear-gradient" x1="46.96" x2="688.91" y1="438.33" y2="438.33" gradientUnits="userSpaceOnUse"><stop offset="0" stop-color="#f7f7f7"/><stop offset="1" stop-color="#f3f5f7"/></linearGradient><linearGradient id="linear-gradient-2" x1="176.66" x2="289.3" y1="482.86" y2="482.86" gradientUnits="userSpaceOnUse"><stop offset="0" stop-color="#6b9cff"/><stop offset="1" stop-color="#5683df"/></linearGradient><linearGradient id="linear-gradient-3" x1="470.99" x2="585.86" y1="420.14" y2="420.14" xlink:href="#linear-gradient-2"/><style>.cls-3{fill:#4a75cb}.cls-7{fill:#ed975d}.cls-8{fill:#293e68}.cls-9{fill:#233862}.cls-10{fill:#2b478b}.cls-11{fill:#ffb27d}.cls-12{fill:#2c3a64}.cls-15{fill:#e58638}.cls-16{fill:#ee9849}.cls-24{fill:#fff}.cls-27{fill:#f9e5e5}</style></defs><g id="Layer_8" data-name="Layer 8"><path fill="#cfeaff" d="M45.37 498.08s-78.13-215.77 75.85-215.77c81.35 0 47.84-59.21 103.15-127.72s326.2-173.46 323.51-34.92c-2.64 135.94-60.34 216.82 38 199.59 118.15-20.7 131 178.82 131 178.82z"/></g><g id="Layer_9" data-name="Layer 9"><path fill="url(#linear-gradient)" d="M682.25 476.77c-10.31-5.37-31.38-1.74-46.93 2.14a60.93 60.93 0 00-8.55-7.08c33.5-15.4 79.77-48.24 55.25-51-21.32-2.44-50.09 27.17-65.47 45.17-16-7.66-40.43-13.3-77.78-11.34-96.94 5.07-172.67-39.56-228.49-24.67-44.38 11.78-85.06 18.41-124.28 16.14 1.69-20.45 2.06-60.6-20.44-64.76-22.85-4.23-.44 41.37 12 64.14q-4.38-.4-8.74-1c-8.07-11.35-21.36-26.2-35.95-26.7-13.74-.48 3.22 12.87 19.91 24.18-48-7.19-104.88 20.64-105.82 53.54h598.9s-1.06-4.8-5.76-11.13c23.15-.29 53.35-1.79 42.15-7.63z"/><path d="M211.39 470.14h112.64v25.44H211.39z" class="cls-3"/><path fill="url(#linear-gradient-2)" d="M176.66 470.14H289.3v25.44H176.66z"/><path fill="#ed7c7c" d="M368.34 378.34h83.88v117.24h-83.88z" transform="rotate(180 410.28 436.95)"/><path fill="#ff9898" d="M342.48 378.34h83.88v117.24h-83.88z" transform="rotate(180 384.42 436.95)"/><path d="M501.19 212.82c-1.29-.19-5.2 3.42-5.2 3.42-8.34 1-20.54 3.18-24.93 4-3.12.6-11.49-2.25-19.66-5.53-9.73-3.9-19.18-8.39-19.18-8.39-5.4-.28-11.53 9.57-.58 15.83 1.67 1 7.95 2.58 15.17 4.07 10 2.06 21.75 3.84 25.76 3.21 4.66-.73 17.84-5.55 25.68-9.24h.09a9.51 9.51 0 013.67-1c1.47.08 4.74-2.6 4.84-3.32s-4.36-2.87-5.66-3.05z" class="cls-7"/><path d="M491 336.86l-4.6.93s-21-23.62-24.26-33.56c-1.74-5.31-12.84-7.6-24.44-10.6-10.09-2.61-20.56-5.76-25.57-11.89-10.75-13.19 6.76-29.39 6.76-29.39s18.61 11.07 34.66 22.49c11.22 8 21.2 16.15 22.7 20.84 3.66 11.41 11.4 33.1 14.75 41.18z" class="cls-8"/><path d="M484.86 344.65h2.58c.87-.14 1.51-.39 2.4-.5a2.39 2.39 0 012.09.5h11c.27-.4 0-1.31-.25-2a1.56 1.56 0 00-1-.94 11.91 11.91 0 01-5.56-2.54c-1.18-1.07-5.71-3.93-5.71-3.93-.1 0-.57.15-2.63 1.89-1.07.9-2.88-1.27-2.88-1.27a2.61 2.61 0 00-.6.81 2.73 2.73 0 00-.23 1.68 11 11 0 01-.79 4.07c-.25.76-.47 1.29-.47 1.29s-.17.66 2.05.94z" class="cls-9"/><path d="M439.16 265s-1.28 4-3.36 10.09a479.35 479.35 0 01-10.79 28.7c-.94 2.22-1.89 4.41-2.84 6.51-3.54 7.79-7.15 14.47-10.34 17.86-5.72 6.1-19.63 45.3-19.63 45.3l-3.47-.95S383.9 339.06 401 320a1.2 1.2 0 00.35-.71c.23-2.82 1-15.45 2.81-28.25.44-3.14.93-6.29 1.49-9.3 0-.2.07-.39.1-.58 2.61-13.94 5.1-20.15 8.32-23.27l23.67 6.74z" class="cls-10"/><path d="M388.34 378.31h2.59c.86-.14 1.5-.39 2.39-.5a2.36 2.36 0 012.09.5h11c.28-.4 0-1.31-.24-2a1.56 1.56 0 00-1-.94 11.86 11.86 0 01-5.56-2.54c-1.18-1.07-5.71-3.93-5.71-3.93-.1 0-.57.15-2.63 1.89-1.06.9-2.88-1.27-2.88-1.27a2.51 2.51 0 00-.59.81 2.72 2.72 0 00-.24 1.68 10.81 10.81 0 01-.78 4.07c-.26.76-.48 1.29-.48 1.29s-.18.63 2.04.94z" class="cls-9"/><path d="M393.42 219.5s-4 9.69-8.53 19.12c-3.84 7.93-8.1 15.67-10.81 17.33a404.99 404.99 0 00-21.14 13.8s-5.33 0-6.15 1-2.74 5.6-2.18 6.06 4.79.25 5.82-.8a9.69 9.69 0 013.38-1.74h.1c8.28-2.55 21.28-7.86 25.21-10.46C382.53 261.53 390 252.28 396 244c4.34-6 7.89-11.4 8.48-13.23 3.91-11.95-7.25-15.11-11.06-11.27z" class="cls-11"/><path d="M414.13 181.5a20.81 20.81 0 00-1.41-1.83 4.41 4.41 0 001.74-.26c1.39-.58 2-5 1.82-6.3s-2.14-5.09-4.52-5.47-4.84 2.27-4.84 2.27c.44-1.91 4.46-3 4.46-3-8.29 1.53-7.87 7.06-7.81 7.57-7.6-2.7-12.06 11.6-12.06 11.6l19.68 11.6s.05-3.16 1.93-3c2.88.32 5.36-6.84 1.01-13.18z" class="cls-12"/><path d="M415.39 211.52c-4.52 2.13-10.51-.94-10.48-1 .39-.38.25-1.54-.1-3.06a22.4 22.4 0 00-2.74-6.32l-1-1.68.51-.19 8.77-3.52s1.42 2.55 2.91 4.87c1.25 1.94 2.58 3.68 3.16 3.62 0-.01 5.8 3.99-1.03 7.28z" class="cls-11"/><path d="M401.55 204.73s11.43-4.5 8.51-11.57-3.4-12.41-10.81-9.84-7.71 5.86-7.32 8.45 6.58 13.95 9.62 12.96z" class="cls-11"/><path d="M405.81 191.55c5.28-.75 6.82-2.88 6.82-2.88a14.57 14.57 0 01-7.71-6.15s-5.93-2-10.32 1.34a3 3 0 00-.56 1.24c-1-.33-2.52-.24-3.39 2.6-1.31 4.28 3.35 9 3.35 9 1.14-.32-.14-4.13-.32-6.17a9.74 9.74 0 011.11-4.32c.56.73 6.12 7.72 12.92 8a29 29 0 01-6.86-3.68 8.82 8.82 0 004.96 1.02z" class="cls-12"/><path fill="#699dee" d="M437.13 226.09l-.31-1.06a26.61 26.61 0 002.88-8.64 17.33 17.33 0 00-.54-8.45s-7.93-4.2-11.42-4.73h-.19c-3.53-.49-11.17 1.07-11.17 1.07a5.55 5.55 0 01-2.69 6.55c-4.16 2.61-8.6-.67-8.6-.67l-.42.29s-10.95 7.22-11.93 8.87-5.2 9.82-5.2 9.82 1.34 6.86 16.13 7.44a34.21 34.21 0 012.44 8.22c1.18 9.31-.18 16.66 1.18 22.09s26 2.34 30.51 1.29 3.47-5.81 3.81-10.45c.39-5.85-3.02-26.51-4.48-31.64z"/><path d="M339.25 277.42s4.6-5.57 5.58-6.23 5.34-1.81 5.58-1.58.26.57-.27 1.05-2.6 1.67-2.3 1.81 6.48-3 7.38-1.91-.51 5.31-2.9 7.37-9.51 2.92-10 3.21c-3.76 2.43-3.07-3.72-3.07-3.72z" class="cls-7"/><path d="M258.32 264.56s6.61 7.84 15 4.56a25.39 25.39 0 001.83-7.6v-1.15c.05-3.63.17-5.67.17-5.67-.38-.16-12.85-5.28-12.84-4.86.23 9.83-4.16 14.72-4.16 14.72z" class="cls-11"/><path d="M278 254.32s-14 3.3-15.94-5.47-5-14.24 3.85-16.72 11.35.49 12.71 3.26 2.94 17.85-.62 18.93z" class="cls-11"/><path fill="#a9453d" d="M262.5 251.24c-.19.13-3.21 1-8.93-10.33a9.92 9.92 0 01.59-9.07c2.09-3.42 9.5-6.11 15.66-7.28s7.65 2.3 9.1 5.79c1.52 3.65 5.92 6.67 5.92 6.67-5.31 3-11.71-1.28-13.93-.58s-3 4.19-3.17 5.31-.42 2.05-3.21 1.05-1.26 3.95-.81 4.9c0 0 .38 2.52-1.22 3.54z"/><path d="M226.37 470.14h-8.5c-1.78 0-3.76-1.8-4.25-5.11s-4.16-5.12-5-7.82 3.27-6.52 3.27-6.52l.68-.89.7-.92 6.73 1.61s.16 1.62.27 3.69c.07 1.49.11 3.22 0 4.73-.2 3.61 1 7.5 4.16 8.2s1.94 3.03 1.94 3.03zM285.49 470.22H263a1.88 1.88 0 01-.48-.14c-1.5-.77-1-6.7-.85-8.53 0-.34.06-.54.06-.54s7.91-6.52 9-1.52l.12.45c1.37 4.67 7.52 6.79 11.07 7.38 2.69.46 3.39 2.09 3.57 2.9z" class="cls-12"/><path d="M281 340s-1.2 15-2.61 33c-1.92 24.49-4.23 54.58-4.46 60.28-.4 9.89-2 25.72-2 25.72s-3.76 3.77-11.28 2.18a259.43 259.43 0 01-8.65-46.44l-.09-1.18c-1.78-24.34-4.55-75.6-4.55-75.6z" class="cls-15"/><path d="M275.46 341.82s-21.67 54.32-35.92 79.85-18.7 32.66-18.7 32.66-8.16-3.27-8.9-5.5c0 0 5.44-49.28 15-61.3 5.39-6.79 11.72-27.16 12-34.29s1.94-21.24 1.94-21.24z" class="cls-16"/><path d="M225.85 332.77s-.56 6.78-1 7.83-3.15 4.27-3.46 4.22-.51-.3-.35-1 1.11-2.69.81-2.63-3.44 5.77-4.69 5.45-2.47-4.39-1.73-7.27 5.79-7.38 6-7.84c1.64-3.89 4.42 1.24 4.42 1.24z" class="cls-7"/><path fill="#1e3d70" d="M223.52 334.49c2.4.77 2.78.6 2.78.6s11.68-21.26 12.86-23.21S264 288.05 264 288.05l-6.07-22.62S231 300.2 228.14 305.18c-4.8 8.25-7.6 27.39-7.6 27.39a7.06 7.06 0 002.98 1.92z"/><path fill="#2a4e96" d="M285.53 296.93c-.09 4.65-.36 9.87-.72 15.17 0 .32 0 .63-.07.95a492.25 492.25 0 01-1.14 13.6v.17c0 .46-.07 1-.12 1.43-1.18 12-2.42 21.54-2.65 21.68a1.34 1.34 0 01-.93.24c-3.15-.4-12.56.32-20.27-1.36a58.27 58.27 0 01-18-7.48c-.79-.46-2.59-1.7-2.44-2.62s.41-2.47.75-4.31a235.77 235.77 0 003.87-30.29c.13-2.4.33-4.77.58-7.1a106.51 106.51 0 013.15-16.95c2.64-9.52 6.52-16.8 11.39-19.65.64-.36 4.06 1.82 7.21 3.84a13.88 13.88 0 008.93 2.12l2.62 2.89c3.17 3.69 6.54 8.59 7.47 15.56l.17 1.65a101.17 101.17 0 01.2 10.46z"/><path fill="#7ba1ff" d="M342 278c-.93-2.51-2.37-2.35-2.37-2.35s-26.79 6.68-29.2 7-28.85-10.32-28.85-10.32-10.41-4.67-15.28-.41c-4.24 3.71-4.43 8.4-3.44 12.35a11.78 11.78 0 0010 8.78c10.79 1.38 32.32 4 36.83 3.33 10-1.39 32.8-14.53 32.8-14.53A8.48 8.48 0 00342 278z"/><g id="man"><path d="M606.16 327.09s3.72 3.45 3 5.9-4.09 4.08-4.54 7.08-2.27 4.63-3.9 4.63h-7.8s-1.2-2.11 1.71-2.74 4-4.16 3.82-7.43a56.94 56.94 0 01.27-7.62l6.17-1.46zM559.77 344.29a14.38 14.38 0 01-3.52.41h-17.62c.06-.53.47-2.39 3.35-2.86 3.25-.53 8.89-2.42 10.15-6.58 0-.13.08-.27.11-.41 1-4.45 8.26 1.36 8.26 1.36v.48c.22 1.64.65 6.91-.73 7.6z" class="cls-12"/><path d="M542.84 225.31s1.1 13.76 2.4 30.3c1.76 22.48 3.88 50.08 4.09 55.31.36 9.08 1.82 23.6 1.82 23.6s3.45 3.45 10.35 2a237.16 237.16 0 007.9-42.67l.09-1.09c1.63-22.33 4.17-69.36 4.17-69.36z" class="cls-8"/><path fill="#35488b" d="M547.88 226.94s19.88 49.84 33 73.27 17.16 30 17.16 30 7.49-3 8.17-5c0 0-5-45.22-13.75-56.24-4.95-6.23-10.76-24.92-11-31.46S579.61 218 579.61 218z"/><path d="M486.55 199.91a60.18 60.18 0 00-6.3-1.17 12.89 12.89 0 00-4.12 1.65c0 .25.11.46.66.5s2.35-.19 2.24 0-5.32 1.24-5.38 2.28 2.8 3 5.2 3.13 7.14-2.67 7.55-2.71c3.44-.27.15-3.68.15-3.68z" class="cls-11"/><path d="M484.25 201.28c-.78-2.46-.6-2.85-.6-2.85s21.86-11.83 23.87-13 24.59-25.24 24.59-25.24l23.14 6.37s-35.81 27.27-40.94 30.21c-8.48 4.85-28.12 7.6-28.12 7.6a7.08 7.08 0 01-1.94-3.09z" class="cls-15"/><path d="M539.12 148.48s-8.11 14.27-16 16.13a21.66 21.66 0 012.26-8.07 92.17 92.17 0 01-2.09-2.55 48.36 48.36 0 01-2.94-4.13l2.69-7.23 1.83-4.91a23.19 23.19 0 002.85 4.11 19.45 19.45 0 0011.4 6.65z" class="cls-11"/><path d="M518.17 150.92s12.12-4.73 9.06-12.23-3.55-13.17-11.42-10.47-8.19 6.17-7.78 8.93 6.91 14.85 10.14 13.77z" class="cls-11"/><path d="M580.78 221.72c-4.89 7-41.44 16.42-41 11.56a52.73 52.73 0 000-9.6c-.1-1-.22-2.15-.39-3.31a76.42 76.42 0 00-8.06-24.13c-.37-.72-.75-1.44-1.15-2.16a75.4 75.4 0 01-5.07-11.39c-2.53-7.32-3.55-14.32-2.27-18.9a.25.25 0 010-.07c7.64-3.53 10.6-17.23 10.6-17.23s26.07 4.68 40.67 39.43c.01 0 10.89 29.68 6.67 35.8z" class="cls-16"/><path d="M498.67 215.86s-7.21.38-8.33.78-4.63 3.2-4.59 3.54.3.55 1 .4 2.89-1.09 2.83-.77-6.24 3.46-5.93 4.79 4.57 2.76 7.64 2.06 8-5.9 8.51-6.09c4.2-1.57-1.13-4.71-1.13-4.71z" class="cls-11"/><path fill="#f4aa6e" d="M497.31 218.59c-1.44-2.33-.4-3.4-.4-3.4s22.28-17.44 24-19.2 9.84-29.82 9.84-29.82 2.78-11.36 9.3-12.61c5.67-1.09 9.58 1.71 12.15 5a12.08 12.08 0 01.81 13.59c-5.68 9.58-17.16 28.61-20.51 31.86-7.46 7.23-32.41 17.34-32.41 17.34a8.61 8.61 0 01-2.78-2.76z"/><path d="M529 124.75c.09-.17.33-.35.94-.53a2.49 2.49 0 00-1.22 0 3.2 3.2 0 00-2.72-2.26 1.88 1.88 0 011.21 1.12c-2.12-1.35-6.06-1.74-15.9 1.54-13 4.32-6.49 11.85-4.52 12.45s5.58-3.27 8.83-3.8 5 4 6.26 4.38.53-.65 1.83-1.69 2.05 1.4 2 3.11 2.5 3.32 2.5 3.32l1.49-2.72c1.48-2.73 1.08-12.62-.34-14.4z" class="cls-10"/></g><path d="M506.41 344.7h114.87v150.87H506.41z" class="cls-3"/><path fill="url(#linear-gradient-3)" d="M470.99 344.7h114.87v150.87H470.99z"/><path fill="none" stroke="#848484" stroke-linecap="round" stroke-miterlimit="10" stroke-width="5" d="M6.14 497.26h739.63"/><path d="M507.63 109.55l-10.24-9.71a2.24 2.24 0 00-1.12-.58l-42.18-7.76a1.71 1.71 0 00-2 1.37 1.76 1.76 0 00.1.94l21.88 54.8a1.72 1.72 0 002.24.94 1.82 1.82 0 00.68-.49l30.77-37.24a1.7 1.7 0 00-.13-2.27zm-15-7.76l-12.83 10.62-20.15-16.66zM475.1 142.4L457.32 98l21.06 17.4zm3.21 0l3.11-25.66 21.23-3.82zm5.7-29.31L496.16 103l7 6.63z" class="cls-24"/><g opacity=".4"><path fill="none" fill-rule="evenodd" stroke="#ee9849" stroke-linecap="round" stroke-linejoin="round" stroke-width="3" d="M258.91 97l7.09 46.1 27.77-4.81 9.37-26.57zm9.29 51.83l42.57 9.47-2.21-43.55-10.18 28.89z"/></g><path d="M141.76 246c-9.2 3.1-11.71 5.66-14.83 14.83-3.11-9.21-5.65-11.73-14.82-14.83 9.2-3.11 11.71-5.65 14.82-14.83 3.12 9.25 5.63 11.76 14.83 14.83zM397.79 48.9c-9.2 3.1-11.73 5.66-14.83 14.83-3.11-9.21-5.65-11.73-14.83-14.83 9.2-3.11 11.72-5.65 14.83-14.82 3.1 9.2 5.63 11.71 14.83 14.82zM640.73 273.77c-9.2 3.1-11.72 5.65-14.82 14.82-3.11-9.21-5.66-11.72-14.83-14.82 9.2-3.11 11.72-5.66 14.83-14.83 3.09 9.2 5.62 11.72 14.82 14.83zM163.31 219.21c-4.61 1.55-5.86 2.82-7.42 7.42-1.55-4.61-2.83-5.87-7.42-7.42 4.61-1.56 5.87-2.83 7.42-7.41 1.56 4.6 2.81 5.84 7.42 7.41z" class="cls-27"/><path d="M152.53 363.29c-9.2 3.1-11.72 5.66-14.83 14.83-3.11-9.21-5.66-11.73-14.83-14.83 9.2-3.11 11.72-5.65 14.83-14.84 3.11 9.21 5.63 11.73 14.83 14.84zM119.53 336.46c-4.61 1.55-5.87 2.82-7.42 7.41-1.56-4.61-2.83-5.86-7.42-7.41 4.61-1.56 5.86-2.83 7.42-7.41 1.55 4.6 2.81 5.84 7.42 7.41z" class="cls-24"/><path d="M414.24 20.18c-4.6 1.55-5.86 2.83-7.41 7.42-1.55-4.6-2.82-5.87-7.41-7.42 4.6-1.55 5.86-2.83 7.41-7.41 1.55 4.6 2.81 5.83 7.41 7.41zM616.65 188.06c-4.6 1.56-5.87 2.83-7.41 7.42-1.56-4.6-2.83-5.86-7.42-7.42 4.6-1.55 5.86-2.83 7.42-7.41 1.54 4.6 2.81 5.86 7.41 7.41z" class="cls-27"/></g></svg>