<svg xmlns="http://www.w3.org/2000/svg" xmlns:xlink="http://www.w3.org/1999/xlink" viewBox="0 0 750 500"><defs><linearGradient id="linear-gradient" x1="115.54" x2="196.76" y1="419.63" y2="419.63" gradientUnits="userSpaceOnUse"><stop offset="0" stop-color="#f7f7f7"/><stop offset="1" stop-color="#f3f5f7"/></linearGradient><linearGradient id="linear-gradient-2" x1="105.69" x2="120.4" y1="368.11" y2="368.11" xlink:href="#linear-gradient"/><linearGradient id="linear-gradient-3" x1="100.49" x2="125.59" y1="389.6" y2="389.6" xlink:href="#linear-gradient"/><linearGradient id="linear-gradient-4" x1="104.79" x2="131.68" y1="407.2" y2="407.2" gradientTransform="rotate(8.11 118.26 407.36)" xlink:href="#linear-gradient"/><linearGradient id="linear-gradient-5" x1="114.96" x2="141.86" y1="423.75" y2="423.75" gradientTransform="rotate(8.11 128.44 423.93)" xlink:href="#linear-gradient"/><linearGradient id="linear-gradient-6" x1="127.04" x2="137.01" y1="391.94" y2="391.94" xlink:href="#linear-gradient"/><linearGradient id="linear-gradient-7" x1="137.68" x2="147.62" y1="408.98" y2="408.98" xlink:href="#linear-gradient"/><linearGradient id="linear-gradient-8" x1="141.19" x2="151.45" y1="437.35" y2="437.35" xlink:href="#linear-gradient"/><linearGradient id="linear-gradient-9" x1="207.53" x2="243.44" y1="418.26" y2="418.26" xlink:href="#linear-gradient"/><linearGradient id="linear-gradient-10" x1="201.71" x2="211.55" y1="356.32" y2="356.32" xlink:href="#linear-gradient"/><linearGradient id="linear-gradient-11" x1="192.02" x2="208.84" y1="371.81" y2="371.81" xlink:href="#linear-gradient"/><linearGradient id="linear-gradient-12" x1="188.08" x2="210.36" y1="387.83" y2="387.83" xlink:href="#linear-gradient"/><linearGradient id="linear-gradient-13" x1="203.32" x2="212.94" y1="408.77" y2="408.77" xlink:href="#linear-gradient"/><linearGradient id="linear-gradient-14" x1="205.74" x2="215.36" y1="417.58" y2="417.58" xlink:href="#linear-gradient"/><linearGradient id="linear-gradient-15" x1="209.58" x2="225.3" y1="382.66" y2="382.66" xlink:href="#linear-gradient"/><linearGradient id="linear-gradient-16" x1="211.67" x2="227.39" y1="396.09" y2="396.09" xlink:href="#linear-gradient"/><linearGradient id="linear-gradient-17" x1="214.81" x2="225.04" y1="414.02" y2="414.02" xlink:href="#linear-gradient"/><linearGradient id="linear-gradient-18" x1="155.03" x2="257.36" y1="470.36" y2="470.36" xlink:href="#linear-gradient"/><linearGradient id="linear-gradient-19" x1="155.51" x2="255.43" y1="467.85" y2="467.85" xlink:href="#linear-gradient"/><linearGradient id="linear-gradient-20" x1="236.28" x2="309.75" y1="453.58" y2="453.58" xlink:href="#linear-gradient"/><linearGradient id="linear-gradient-21" x1="382.81" x2="464.03" y1="448.67" y2="448.67" gradientTransform="matrix(-1 0 0 1 1056.17 0)" xlink:href="#linear-gradient"/><linearGradient id="linear-gradient-22" x1="372.96" x2="387.68" y1="397.14" y2="397.14" gradientTransform="matrix(-1 0 0 1 1056.17 0)" xlink:href="#linear-gradient"/><linearGradient id="linear-gradient-23" x1="367.77" x2="392.87" y1="418.63" y2="418.63" gradientTransform="matrix(-1 0 0 1 1056.17 0)" xlink:href="#linear-gradient"/><linearGradient id="linear-gradient-24" x1="372.06" x2="398.96" y1="436.23" y2="436.23" gradientTransform="scale(-1 1) rotate(-82 -143.09 1044.34)" xlink:href="#linear-gradient"/><linearGradient id="linear-gradient-25" x1="382.24" x2="409.13" y1="452.79" y2="452.79" gradientTransform="scale(-1 1) rotate(-82 -132.93 1060.9)" xlink:href="#linear-gradient"/><linearGradient id="linear-gradient-26" x1="394.32" x2="404.28" y1="420.97" y2="420.97" gradientTransform="matrix(-1 0 0 1 1056.17 0)" xlink:href="#linear-gradient"/><linearGradient id="linear-gradient-27" x1="404.96" x2="414.89" y1="438.01" y2="438.01" gradientTransform="matrix(-1 0 0 1 1056.17 0)" xlink:href="#linear-gradient"/><linearGradient id="linear-gradient-28" x1="408.47" x2="418.72" y1="466.38" y2="466.38" gradientTransform="matrix(-1 0 0 1 1056.17 0)" xlink:href="#linear-gradient"/><linearGradient id="linear-gradient-29" x1="407.51" x2="443.42" y1="404.35" y2="404.35" gradientTransform="matrix(-1 0 0 1 1056.17 0)" xlink:href="#linear-gradient"/><linearGradient id="linear-gradient-30" x1="401.69" x2="411.53" y1="342.41" y2="342.41" gradientTransform="matrix(-1 0 0 1 1056.17 0)" xlink:href="#linear-gradient"/><linearGradient id="linear-gradient-31" x1="392" x2="408.83" y1="357.9" y2="357.9" gradientTransform="matrix(-1 0 0 1 1056.17 0)" xlink:href="#linear-gradient"/><linearGradient id="linear-gradient-32" x1="388.07" x2="410.35" y1="373.93" y2="373.93" gradientTransform="matrix(-1 0 0 1 1056.17 0)" xlink:href="#linear-gradient"/><linearGradient id="linear-gradient-33" x1="403.31" x2="412.93" y1="394.87" y2="394.87" gradientTransform="matrix(-1 0 0 1 1056.17 0)" xlink:href="#linear-gradient"/><linearGradient id="linear-gradient-34" x1="405.72" x2="415.34" y1="403.67" y2="403.67" gradientTransform="matrix(-1 0 0 1 1056.17 0)" xlink:href="#linear-gradient"/><linearGradient id="linear-gradient-35" x1="409.57" x2="425.29" y1="368.75" y2="368.75" gradientTransform="matrix(-1 0 0 1 1056.17 0)" xlink:href="#linear-gradient"/><linearGradient id="linear-gradient-36" x1="411.66" x2="427.38" y1="382.18" y2="382.18" gradientTransform="matrix(-1 0 0 1 1056.17 0)" xlink:href="#linear-gradient"/><linearGradient id="linear-gradient-37" x1="414.79" x2="425.02" y1="400.11" y2="400.11" gradientTransform="matrix(-1 0 0 1 1056.17 0)" xlink:href="#linear-gradient"/><linearGradient id="linear-gradient-38" x1="473.91" x2="576.25" y1="470.36" y2="470.36" gradientTransform="matrix(-1 0 0 1 1056.17 0)" xlink:href="#linear-gradient"/><linearGradient id="linear-gradient-39" x1="474.39" x2="574.31" y1="467.85" y2="467.85" gradientTransform="matrix(-1 0 0 1 1056.17 0)" xlink:href="#linear-gradient"/><linearGradient id="linear-gradient-40" x1="572.81" x2="646.29" y1="453.58" y2="453.58" gradientTransform="matrix(-1 0 0 1 1056.17 0)" xlink:href="#linear-gradient"/><linearGradient id="linear-gradient-41" x1="401.65" x2="359.01" y1="235.51" y2="235.51" gradientTransform="matrix(1 0 0 -1 0 502.11)" gradientUnits="userSpaceOnUse"><stop offset="0" stop-color="#6b9cff"/><stop offset="1" stop-color="#5683df"/></linearGradient><linearGradient id="linear-gradient-42" x1="355.1" x2="355.1" y1="264.15" y2="216.72" gradientTransform="matrix(1 0 0 -1 0 502.11)" gradientUnits="userSpaceOnUse"><stop offset="0" stop-color="#fff"/><stop offset="1"/></linearGradient><linearGradient id="linear-gradient-43" x1="401.65" x2="359.01" y1="259.16" y2="259.16" xlink:href="#linear-gradient-41"/><linearGradient id="linear-gradient-44" x1="355.1" x2="355.1" y1="287.8" y2="240.37" xlink:href="#linear-gradient-42"/><linearGradient id="linear-gradient-45" x1="493.17" x2="450.54" y1="188.19" y2="188.19" xlink:href="#linear-gradient-41"/><linearGradient id="linear-gradient-46" x1="446.63" x2="446.63" y1="216.83" y2="169.39" xlink:href="#linear-gradient-42"/><linearGradient id="linear-gradient-47" x1="493.17" x2="450.54" y1="211.84" y2="211.84" xlink:href="#linear-gradient-41"/><linearGradient id="linear-gradient-48" x1="446.63" x2="446.63" y1="240.48" y2="193.04" xlink:href="#linear-gradient-42"/><linearGradient id="linear-gradient-49" x1="493.17" x2="450.54" y1="283.73" y2="283.73" xlink:href="#linear-gradient-41"/><linearGradient id="linear-gradient-50" x1="446.63" x2="446.63" y1="312.36" y2="264.94" xlink:href="#linear-gradient-42"/><linearGradient id="linear-gradient-51" x1="493.17" x2="450.54" y1="307.38" y2="307.38" xlink:href="#linear-gradient-41"/><linearGradient id="linear-gradient-52" x1="446.63" x2="446.63" y1="336.02" y2="288.59" xlink:href="#linear-gradient-42"/><linearGradient id="linear-gradient-53" x1="310.12" x2="267.48" y1="188.19" y2="188.19" xlink:href="#linear-gradient-41"/><linearGradient id="linear-gradient-54" x1="263.57" x2="263.57" y1="216.83" y2="169.39" xlink:href="#linear-gradient-42"/><linearGradient id="linear-gradient-55" x1="310.12" x2="267.48" y1="211.84" y2="211.84" xlink:href="#linear-gradient-41"/><linearGradient id="linear-gradient-56" x1="263.57" x2="263.57" y1="240.48" y2="193.04" xlink:href="#linear-gradient-42"/><linearGradient id="linear-gradient-57" x1="310.12" x2="267.48" y1="283.73" y2="283.73" xlink:href="#linear-gradient-41"/><linearGradient id="linear-gradient-58" x1="263.57" x2="263.57" y1="312.36" y2="264.94" xlink:href="#linear-gradient-42"/><linearGradient id="linear-gradient-59" x1="310.12" x2="267.48" y1="307.38" y2="307.38" xlink:href="#linear-gradient-41"/><linearGradient id="linear-gradient-60" x1="263.57" x2="263.57" y1="336.02" y2="288.59" xlink:href="#linear-gradient-42"/><linearGradient id="linear-gradient-61" x1="572.55" x2="574.43" y1="312.82" y2="317.13" gradientTransform="matrix(1 0 0 -1 0 502.11)" gradientUnits="userSpaceOnUse"><stop offset="0" stop-color="#fff"/><stop offset=".12" stop-color="#dadada"/><stop offset=".45" stop-color="#7e7e7e"/><stop offset=".71" stop-color="#3a3a3a"/><stop offset=".9" stop-color="#101010"/><stop offset="1"/></linearGradient><style>.cls-2,.cls-48,.cls-73,.cls-92,.cls-95,.cls-96{fill:none}.cls-2,.cls-73,.cls-96{stroke:#fff}.cls-2,.cls-48,.cls-92,.cls-95{stroke-linecap:round}.cls-2,.cls-73,.cls-96{stroke-miterlimit:10}.cls-2{stroke-width:3px;stroke-dasharray:4.68 9.35}.cls-44{fill:#f9e5e5}.cls-45{fill:#f7a491}.cls-47{fill:#0e2e35}.cls-48{stroke:#3358cc}.cls-48,.cls-92,.cls-95{stroke-linejoin:round}.cls-50{fill:#fff}.cls-53{fill:#83b9f7}.cls-73{stroke-width:.52px}.cls-74{fill:#804e00}.cls-76{fill:#ff9c87}.cls-86{fill:#f95858}.cls-88{fill:#244ccc}.cls-89{fill:#ffb13f}.cls-91{fill:#bababa}.cls-92{stroke:#244ccc}.cls-94{fill:#ff9898}.cls-95{stroke:#bababa}.cls-96{stroke-width:.26px}.cls-99{fill:#ff927b}.cls-100{fill:#323847}</style></defs><g id="Layer_8" data-name="Layer 8"><g id="OBJECTS"><path id="OBJECTS-2" fill="#cfeaff" d="M64.42 495.81l638.08-.1c21-52.17 21-77.66 23.36-107.56 13.19-165.29-93.73-190.7-125-197.59C505 169.46 548.6 65 298.68 84.63c-22.9 1.79-76.9 16.29-95.52 25.68-13 6.59-62.21 36-76.66 85.85a103.54 103.54 0 00-1.06 53.18c16.27 69.72-26.15 65.74-57.13 98.94C27 392.62 31.29 465.13 64.42 495.81z"/></g><path d="M120.42 337.51s-109.25 41.57-34 156.1" class="cls-2"/><path fill="url(#linear-gradient)" d="M196.76 466.12c-28.87-10.51-49.06-35.58-60.92-54.76a206.2 206.2 0 01-19-39.58l-1.27.51a206.88 206.88 0 0019.15 39.86c12 19.37 32.37 44.69 61.6 55.34z"/><path fill="url(#linear-gradient-2)" d="M117.94 365a20.83 20.83 0 011.68 15.45 18 18 0 01-11.47-9.31 20.85 20.85 0 01-1.68-15.46 18.06 18.06 0 0111.47 9.32z"/><path fill="url(#linear-gradient-3)" d="M115.11 384a18.4 18.4 0 0110.48 10.56 17.55 17.55 0 01-14.62.69 18.38 18.38 0 01-10.48-10.55 17.59 17.59 0 0114.62-.7z"/><ellipse cx="118.24" cy="407.2" fill="url(#linear-gradient-4)" rx="13.57" ry="5.96" transform="rotate(-8.1 118.96 410.5)"/><ellipse cx="128.41" cy="423.75" fill="url(#linear-gradient-5)" rx="13.57" ry="5.96" transform="rotate(-8.11 128.45 423.92)"/><path fill="url(#linear-gradient-6)" d="M127.08 392a20.34 20.34 0 015.68-13.16 17.66 17.66 0 014.21 13 20.35 20.35 0 01-5.68 13.16 17.7 17.7 0 01-4.21-13z"/><path fill="url(#linear-gradient-7)" d="M137.7 409.16a20.48 20.48 0 015.49-13.27 17.61 17.61 0 014.41 12.91 20.43 20.43 0 01-5.49 13.27 17.65 17.65 0 01-4.41-12.91z"/><path fill="url(#linear-gradient-8)" d="M145.24 434.93a7.16 7.16 0 016.21-.29 8.23 8.23 0 01-4 5.13 7.16 7.16 0 01-6.21.29 8.26 8.26 0 014-5.13z"/><path fill="url(#linear-gradient-9)" d="M242.57 476.19l.87-.74c-19.62-23.9-28-53.85-31.57-74.77a206.24 206.24 0 01-3.08-40.14l-1.19-.21a208.34 208.34 0 003.09 40.39c3.6 21.09 12.06 51.28 31.88 75.47z"/><path fill="url(#linear-gradient-10)" d="M211.41 356.74c.58 5.16-.75 9.62-3.33 12.48a23.15 23.15 0 01-6.24-13.33c-.58-5.15.75-9.61 3.33-12.47a23.15 23.15 0 016.24 13.32z"/><path fill="url(#linear-gradient-11)" d="M203.76 368.76a22.65 22.65 0 015.08 13.7c-4.07-.71-8.38-3.34-11.74-7.6a22.67 22.67 0 01-5.08-13.7c4.07.71 8.38 3.34 11.74 7.6z"/><path fill="url(#linear-gradient-12)" d="M200.6 383.11a22.64 22.64 0 019.76 10.89c-3.54 1.41-8.06 1-12.51-1.41a22.69 22.69 0 01-9.77-10.87c3.54-1.44 8.07-1.07 12.52 1.39z"/><path fill="url(#linear-gradient-13)" d="M208.56 406.73a9.45 9.45 0 014.38 4.27 6 6 0 01-5.23-.18 9.44 9.44 0 01-4.39-4.28 6.06 6.06 0 015.24.19z"/><path fill="url(#linear-gradient-14)" d="M211 415.54a9.45 9.45 0 014.38 4.27 6.06 6.06 0 01-5.24-.18 9.52 9.52 0 01-4.38-4.28 6.06 6.06 0 015.24.19z"/><path fill="url(#linear-gradient-15)" d="M214.62 378.46A11.73 11.73 0 01225.3 377a12.56 12.56 0 01-5 9.83 11.76 11.76 0 01-10.69 1.45 12.59 12.59 0 015.01-9.82z"/><path fill="url(#linear-gradient-16)" d="M216.71 391.89a11.73 11.73 0 0110.68-1.44 12.56 12.56 0 01-5 9.83 11.75 11.75 0 01-10.69 1.45 12.63 12.63 0 015.01-9.84z"/><path fill="url(#linear-gradient-17)" d="M218.08 411.29a7.66 7.66 0 017-.94 8.17 8.17 0 01-3.28 6.4 7.61 7.61 0 01-6.95.94 8.19 8.19 0 013.23-6.4z"/><path fill="url(#linear-gradient-18)" d="M257.36 494.12s-28.67-36.82-40.66-42.46c-12.77-6-1.7 14.82-1.7 14.82s-27.31-26.83-33.72-20.13.43 13 .43 13-22.87-4.25-26.2 4.32C150.38 476.8 188 483.35 188 483.35s-18-4-14.42 4.19c5.42 12.29 83.78 6.58 83.78 6.58z"/><path fill="url(#linear-gradient-19)" d="M155.51 463.63c3.33-8.57 26.2-4.32 26.2-4.32s-6.85-6.26-.43-13 27.79 9.12 27.79 9.12-3.31-14.54 12.75-3.11c11.47 8.17 33.61 38.65 33.61 38.65z"/><path fill="url(#linear-gradient-20)" d="M236.28 493.56s45.69 3.24 54.59-4.95.07-23 .07-23 15.68-12.4 15.44-20.49-10.46-4-10.46-4 17.31-22.29 13.2-26.53c-7.64-7.9-27.66 15.27-27.66 15.27s5.94-11-.33-12.77c-9.45-2.64-16.4 24.55-16.4 24.55s1.76-10.74-4.75-9.31c-11.69 2.56-23.7 61.23-23.7 61.23z"/><path fill="url(#linear-gradient-21)" d="M592.14 495.15c28.87-10.51 49.06-35.58 60.92-54.76a205.88 205.88 0 0019-39.57l1.27.5a206.88 206.88 0 01-19.15 39.86c-12 19.37-32.37 44.7-61.6 55.34z"/><path fill="url(#linear-gradient-22)" d="M671 394.07a20.83 20.83 0 00-1.68 15.45 18 18 0 0011.47-9.31 20.85 20.85 0 001.68-15.46 18.06 18.06 0 00-11.47 9.32z"/><path fill="url(#linear-gradient-23)" d="M673.79 413a18.4 18.4 0 00-10.48 10.56 17.59 17.59 0 0014.62.7 18.4 18.4 0 0010.48-10.56 17.59 17.59 0 00-14.62-.7z"/><ellipse cx="670.67" cy="436.23" fill="url(#linear-gradient-24)" rx="5.96" ry="13.57" transform="rotate(-81.89 670.64 436.23)"/><ellipse cx="660.49" cy="452.79" fill="url(#linear-gradient-25)" rx="5.96" ry="13.57" transform="rotate(-81.89 660.46 452.8)"/><path fill="url(#linear-gradient-26)" d="M661.83 421.06a20.41 20.41 0 00-5.69-13.17 17.66 17.66 0 00-4.21 13 20.35 20.35 0 005.68 13.17 17.72 17.72 0 004.22-13z"/><path fill="url(#linear-gradient-27)" d="M651.2 438.19a20.43 20.43 0 00-5.49-13.26 17.57 17.57 0 00-4.41 12.9 20.43 20.43 0 005.49 13.27 17.65 17.65 0 004.41-12.91z"/><path fill="url(#linear-gradient-28)" d="M643.66 464a7.13 7.13 0 00-6.21-.3 8.2 8.2 0 004 5.13 7.13 7.13 0 006.21.29 8.21 8.21 0 00-4-5.12z"/><path fill="url(#linear-gradient-29)" d="M613.62 462.28l-.87-.74c19.62-23.9 28-53.85 31.57-74.77a206.2 206.2 0 003.08-40.14l1.19-.21a208.34 208.34 0 01-3.09 40.39c-3.6 21.1-12.06 51.32-31.88 75.47z"/><path fill="url(#linear-gradient-30)" d="M644.78 342.84c-.58 5.15.75 9.61 3.33 12.47a23.15 23.15 0 006.24-13.31c.58-5.16-.75-9.62-3.33-12.48a23.15 23.15 0 00-6.24 13.32z"/><path fill="url(#linear-gradient-31)" d="M652.43 354.85a22.67 22.67 0 00-5.08 13.7c4.07-.71 8.38-3.34 11.74-7.6a22.65 22.65 0 005.08-13.7c-4.07.75-8.38 3.34-11.74 7.6z"/><path fill="url(#linear-gradient-32)" d="M655.59 369.2a22.66 22.66 0 00-9.76 10.87c3.54 1.41 8.06 1 12.51-1.42a22.66 22.66 0 009.77-10.86c-3.54-1.41-8.11-1.05-12.52 1.41z"/><path fill="url(#linear-gradient-33)" d="M647.63 392.82a9.45 9.45 0 00-4.38 4.27 6 6 0 005.23-.18 9.42 9.42 0 004.39-4.27 6 6 0 00-5.24.18z"/><path fill="url(#linear-gradient-34)" d="M645.21 401.63a9.45 9.45 0 00-4.38 4.27 6.06 6.06 0 005.24-.18 9.42 9.42 0 004.38-4.28 6.06 6.06 0 00-5.24.19z"/><path fill="url(#linear-gradient-35)" d="M641.57 364.56a11.74 11.74 0 00-10.68-1.45 12.59 12.59 0 005 9.84 11.76 11.76 0 0010.69 1.44 12.57 12.57 0 00-5.01-9.83z"/><path fill="url(#linear-gradient-36)" d="M639.48 378a11.74 11.74 0 00-10.68-1.45 12.59 12.59 0 005 9.84 11.75 11.75 0 0010.69 1.44 12.6 12.6 0 00-5.01-9.83z"/><path fill="url(#linear-gradient-37)" d="M638.11 397.38a7.69 7.69 0 00-7-.94 8.21 8.21 0 003.28 6.4 7.65 7.65 0 007 1 8.19 8.19 0 00-3.28-6.46z"/><path fill="url(#linear-gradient-38)" d="M479.93 494.12s28.68-36.82 40.66-42.46c12.78-6 1.7 14.82 1.7 14.82s27.31-26.83 33.71-20.13-.44 13-.44 13 22.87-4.25 26.21 4.32c5.12 13.17-32.49 19.72-32.49 19.72s18-4 14.41 4.19c-5.42 12.25-83.76 6.54-83.76 6.54z"/><path fill="url(#linear-gradient-39)" d="M581.79 463.63c-3.34-8.57-26.21-4.32-26.21-4.32s6.85-6.26.44-13-27.8 9.12-27.8 9.12 3.32-14.54-12.74-3.11C504 460.53 481.86 491 481.86 491z"/><path fill="url(#linear-gradient-40)" d="M483.37 493.56s-45.7 3.24-54.6-4.95-.07-23-.07-23-15.68-12.4-15.43-20.49 10.46-4 10.46-4-17.32-22.29-13.21-26.53c7.65-7.9 27.67 15.27 27.67 15.27s-5.94-11 .32-12.77c9.45-2.64 16.41 24.55 16.41 24.55s-1.77-10.74 4.75-9.31c11.69 2.56 23.7 61.23 23.7 61.23z"/></g><g id="_1" data-name="1"><path d="M563.22 200.15s62.68 11.38 111.25 76.52c38.21 51.23 17.65 196.07 7.89 204.41" class="cls-2"/><path fill="none" stroke="#848484" stroke-linecap="round" stroke-miterlimit="10" stroke-width="5" d="M6.14 495.26h739.63"/><g id="DESIGNED_BY_FREEPIK" data-name="DESIGNED BY FREEPIK"><rect width="92.65" height="47.35" x="604.8" y="140.82" class="cls-44" rx="16.43" transform="rotate(-180 651.12 164.5)"/><path d="M567.14 213.27s2.71-10.07 1.9-15.11 13.16-1.76 13.16-1.76l2.72 17.81" class="cls-45"/><path d="M584.49 171.21c.39-.14 3.16 20.28-2.09 25.9s-15.5 7.46-19.18 3c-4.06-4.9-3.86-26.85 4.32-32.63s16.95 3.73 16.95 3.73z" class="cls-45"/><path fill="#13375b" d="M570.65 156.59a22.72 22.72 0 0111.91 6.75c2.87.34 6.77 1.91 10.8 8.53 4.95 8.15 1.29 17.17-4.47 21.59s-5.7 9.57-5.7 9.57l-.9-2.67a14.81 14.81 0 01-.72-6.23 12.37 12.37 0 01.93-3.74c1.39-3-3-4.92-4.2-7.38-.94-1.9-1-6.23-2.47-9.36l-1.77-2.39S570 168.1 566 169s-3.43-14 4.68-12.4"/><path d="M578.57 186.64c0 2.49 1.1 4.53 2.55 4.56s2.66-2 2.7-4.47-1.1-4.53-2.55-4.56-2.66 1.98-2.7 4.47z" class="cls-45"/><path d="M180.73 187.68c.68-7.5 0-14.84-2.92-21.64-2.5-5.85-9.25-8.9-15.56-8.58-20.05 1-24 28.41-37.25 39.59-4.06 3.41-8.55 6.25-12.42 9.91-14.27 13.5-9.32 36.89 2.63 47.47 8.29 7.34 21.71 11.07 32.71 4.43 5.75-3.46 10.25-9 13.56-14.91 4.7-8.44 7.94-18.06 11.43-27 3.71-9.46 6.92-19.3 7.82-29.27z" class="cls-47"/><path d="M169.67 212.87c4.14-6.32 11.94-22.44 12.86-26.62 1.43-6.49 2.83-13-.93-20.15a18.31 18.31 0 00-14.41-9.81c-17.27-2-17.63 17.84-26.36 28.2" class="cls-47"/><path d="M170 196.59l1.52-7.73-11.79.3s-.06.38-.19 1c-.58 3.17-2.85 13.66-4.38 16.54" class="cls-45"/><path d="M166.84 161.14a13.9 13.9 0 00-8.3 5.16c-3.48 4.5-7.23 18.4 1.42 26s17.2-1 18.47-10.07 1.01-21.42-11.59-21.09z" class="cls-45"/><path d="M181.2 179.09c-1 2-2.77 3.11-3.87 2.48s-1.17-2.78-.14-4.78 2.77-3.11 3.88-2.48 1.16 2.78.13 4.78z" class="cls-45"/><path d="M149.56 182.4s1.9-16.19 7.15-19.31 11.59-2.16 11.59-2.16-7.42 13.22-12.73 13.83-6 7.64-6 7.64" class="cls-47"/><path d="M157.3 177.91c.43 2.35-.43 4.5-1.94 4.81s-3.07-1.35-3.5-3.69.44-4.5 1.94-4.81 3.07 1.34 3.5 3.69z" class="cls-45"/><path d="M288.49 368.81V343.6" class="cls-48"/><path fill="none" stroke="#3358cc" stroke-linecap="round" stroke-linejoin="round" stroke-width=".97" d="M330.38 464.07h85.24a8.39 8.39 0 008.38-8.39v-21.4"/><path d="M217.36 121.02h310.73v226.79H217.36z" class="cls-50"/><path fill="#6582db" d="M217.36 121.02h310.73v26.88H217.36z"/><path d="M361.31 272.98l-59.52 29.14M360.4 229.88L304 202.27M379.76 273.4l57.5 28.14M379.82 229.88l57.96-28.38" class="cls-48"/><path fill="url(#linear-gradient-41)" d="M370.11 265.75l-30.02-14.68v16.37l30.02 14.69 30.02-14.69v-16.37l-30.02 14.68z"/><path d="M370.11 236.37l-30.02 14.7 30.02 14.68 30.02-14.68-30.02-14.7z" class="cls-53"/><path fill="url(#linear-gradient-42)" opacity=".2" style="isolation:isolate" d="M340.09 251.07v16.37l30.02 14.69v-16.38l-30.02-14.68z"/><path fill="url(#linear-gradient-43)" d="M370.11 242.1l-30.02-14.68v16.37l30.02 14.7 30.02-14.7v-16.37l-30.02 14.68z"/><path d="M370.11 212.72l-30.02 14.7 30.02 14.68 30.02-14.68-30.02-14.7z" class="cls-53"/><path fill="url(#linear-gradient-44)" opacity=".2" style="isolation:isolate" d="M340.09 227.42v16.37l30.02 14.7V242.1l-30.02-14.68z"/><path fill="url(#linear-gradient-45)" d="M461.63 313.08l-30.01-14.7v16.39l30.01 14.68 30.03-14.68v-16.39l-30.03 14.7z"/><path d="M461.63 283.69l-30.01 14.69 30.01 14.7 30.03-14.7-30.03-14.69z" class="cls-53"/><path fill="url(#linear-gradient-46)" opacity=".2" style="isolation:isolate" d="M431.62 298.38v16.39l30.01 14.68v-16.37l-30.01-14.7z"/><path fill="url(#linear-gradient-47)" d="M461.63 289.43l-30.01-14.69v16.37l30.01 14.69 30.03-14.69v-16.37l-30.03 14.69z"/><path d="M461.63 260.04l-30.01 14.7 30.01 14.69 30.03-14.69-30.03-14.7z" class="cls-53"/><path fill="url(#linear-gradient-48)" opacity=".2" style="isolation:isolate" d="M431.62 274.74v16.37l30.01 14.69v-16.37l-30.01-14.69z"/><path fill="url(#linear-gradient-49)" d="M461.63 217.54l-30.01-14.7v16.38l30.01 14.7 30.03-14.7v-16.38l-30.03 14.7z"/><path d="M461.63 188.16l-30.01 14.68 30.01 14.7 30.03-14.7-30.03-14.68z" class="cls-53"/><path fill="url(#linear-gradient-50)" opacity=".2" style="isolation:isolate" d="M431.62 202.84v16.38l30.01 14.7v-16.38l-30.01-14.7z"/><path fill="url(#linear-gradient-51)" d="M461.63 193.89l-30.01-14.7v16.38l30.01 14.69 30.03-14.69v-16.38l-30.03 14.7z"/><path d="M461.63 164.5l-30.01 14.69 30.01 14.7 30.03-14.7-30.03-14.69z" class="cls-53"/><path fill="url(#linear-gradient-52)" opacity=".2" style="isolation:isolate" d="M431.62 179.19v16.38l30.01 14.69v-16.37l-30.01-14.7z"/><path fill="url(#linear-gradient-53)" d="M278.58 313.08l-30.01-14.7v16.39l30.01 14.68 30.02-14.68v-16.39l-30.02 14.7z"/><path d="M278.58 283.69l-30.01 14.69 30.01 14.7 30.02-14.7-30.02-14.69z" class="cls-53"/><path fill="url(#linear-gradient-54)" opacity=".2" style="isolation:isolate" d="M248.57 298.38v16.39l30.01 14.68v-16.37l-30.01-14.7z"/><path fill="url(#linear-gradient-55)" d="M278.58 289.43l-30.01-14.69v16.37l30.01 14.69 30.02-14.69v-16.37l-30.02 14.69z"/><path d="M278.58 260.04l-30.01 14.7 30.01 14.69 30.02-14.69-30.02-14.7z" class="cls-53"/><path fill="url(#linear-gradient-56)" opacity=".2" style="isolation:isolate" d="M248.57 274.74v16.37l30.01 14.69v-16.37l-30.01-14.69z"/><path fill="url(#linear-gradient-57)" d="M278.58 217.54l-30.01-14.7v16.38l30.01 14.7 30.02-14.7v-16.38l-30.02 14.7z"/><path d="M278.58 188.16l-30.01 14.68 30.01 14.7 30.02-14.7-30.02-14.68z" class="cls-53"/><path fill="url(#linear-gradient-58)" opacity=".2" style="isolation:isolate" d="M248.57 202.84v16.38l30.01 14.7v-16.38l-30.01-14.7z"/><path fill="url(#linear-gradient-59)" d="M278.58 193.89l-30.01-14.7v16.38l30.01 14.69 30.02-14.69v-16.38l-30.02 14.7z"/><path d="M278.58 164.5l-30.01 14.69 30.01 14.7 30.02-14.7-30.02-14.69z" class="cls-53"/><path fill="url(#linear-gradient-60)" opacity=".2" style="isolation:isolate" d="M248.57 179.19v16.38l30.01 14.69v-16.37l-30.01-14.7z"/><path d="M462.1 134.47a4.22 4.22 0 11-4.22-4.22 4.22 4.22 0 014.22 4.22z" class="cls-73"/><circle cx="482.15" cy="134.47" r="4.21" class="cls-73"/><circle cx="506.43" cy="134.47" r="4.21" class="cls-73"/><path d="M153.58 121c-9.2 3.11-11.72 5.66-14.83 14.83-3.11-9.21-5.65-11.72-14.83-14.83 9.2-3.11 11.72-5.65 14.83-14.83 3.11 9.23 5.63 11.74 14.83 14.83zM461.45 77c-9.2 3.1-11.72 5.65-14.82 14.82C443.52 82.57 441 80.05 431.8 77c9.2-3.11 11.72-5.66 14.83-14.83 3.1 9.15 5.62 11.67 14.82 14.83zM733 281.37c-9.2 3.1-11.73 5.65-14.83 14.82-3.11-9.21-5.65-11.72-14.83-14.82 9.2-3.11 11.72-5.66 14.83-14.83 3.05 9.2 5.58 11.72 14.83 14.83zM175.13 94.19c-4.61 1.55-5.87 2.83-7.42 7.42-1.56-4.61-2.83-5.87-7.42-7.42 4.61-1.56 5.86-2.83 7.42-7.41 1.55 4.6 2.81 5.84 7.42 7.41zM439 45.18c-4.6 1.56-5.86 2.83-7.41 7.42-1.55-4.6-2.83-5.86-7.42-7.42 4.6-1.54 5.87-2.83 7.42-7.41 1.58 4.6 2.84 5.84 7.41 7.41zM708.86 195.66c-4.6 1.56-5.86 2.83-7.41 7.42-1.55-4.6-2.83-5.86-7.42-7.42 4.6-1.55 5.87-2.83 7.42-7.41 1.55 4.6 2.81 5.86 7.41 7.41z" class="cls-44"/><path d="M519.62 493s-16.44-.56-25.84-6.23a1.2 1.2 0 01.47-2.24c6.4-.65 20.44-2.84 24.13-9.83l8.15-.7s2.35 11.32 1.27 19.64l-8.18-.64zM617.76 493.27S601.37 496 591 492.16a1.16 1.16 0 01.08-2.19c6.1-1.87 19.58-6.78 21.83-14.36l7.87-2.29s4.51 10.63 5.08 19l-8.14.94z" class="cls-74"/><path fill="#343947" d="M558.51 296.92s-22.92 49.55-42.81 179.68h12.13s20.23-37.77 19.55-75.19l30.35-73.36s1 47.74 5.06 72.35 28.74 76.2 28.74 76.2h11.7s-5.73-59.67-21.23-78.55c0 0 11.16-67.52 4.71-101.13z"/><path d="M540.53 253l-4.38 15.92s-24.15 38.62-26.29 45.71-2.14 13-.68 15.73l5.84 2 2.7-2.14a15.51 15.51 0 010-9.1 6.77 6.77 0 013.15 5.05 1.39 1.39 0 001.8-.8 1.16 1.16 0 00.08-.32c.33-1.69-.59-9.66-3.2-12.61 0 0 22.62-26.45 28-35a63.77 63.77 0 008.19-20.12z" class="cls-76"/><path fill="#3358cc" d="M584.13 205.89a186.48 186.48 0 0119.72 5.65s3.88 21.68 4.72 39.86 3 49.22 3 49.22-16.34 1.88-23.93 4.21-23.74 5.9-33.64-.83a314.13 314.13 0 001.89-35.23c-.3-16.19-2-43-.34-53.26 0 0 3.78-3.17 12.53-6.06 4.26 2.08 11.53-.4 16.05-3.56z"/><circle cx="611.49" cy="289.39" r="39.62" fill="#d7edff" transform="rotate(-76.81 611.5 289.4)"/><circle cx="611.53" cy="289.43" r="32.11" fill="none" stroke="#3358cc" stroke-miterlimit="10"/><path fill="#a6bdf7" fill-rule="evenodd" d="M598.93 264l-4.12 32.91 19.94 2.12 11.59-16.35zm-4.35 36l27.28 14.77 7-30.22-12.59 17.78z"/><path fill="#6582db" fill-rule="evenodd" d="M621.86 314.83l7-30.22-12.59 17.78zm4.48-32.11L598.93 264l15.82 35z"/><path d="M616.83 253.81l7.75 11.8-7.75 46.64s-6.07 14.33-5.23 17 4.56-5.22 4.56-5.22l-.61 8.92a2.16 2.16 0 002 2.3 2.06 2.06 0 001-.17l6.21-2.7a4.05 4.05 0 002.44-3.39c.29-3.44.43-9.92-1.8-15.41 0 0 14.76-35.82 15-46.69.23-10.45-14.75-26-14.75-26z" class="cls-76"/><path fill="#7ba1ff" d="M603.85 211.54c7.17.58 26.8 31.6 26.8 31.6a24.13 24.13 0 01-15.08 14.51s-8.93-12.78-14.89-20.85c-6.68-9-4.07-25.8 3.17-25.26z"/><path fill="url(#linear-gradient-61)" d="M573.34 188l.7-2.68a7.76 7.76 0 00-.7 2.68z" opacity=".3"/><path fill="#6e98ff" d="M555.52 215.5c-4 2.64-18.1 37.81-18.1 37.81s6 7.54 19.22 8.77c0 0 2.14-9.11 3.49-18.21a47.66 47.66 0 00-4.61-28.37z"/><circle cx="674.47" cy="245.76" r="30.91" class="cls-86"/><path d="M692.78 242l-6.22-5.9a1.39 1.39 0 00-.68-.35L660.26 231a1 1 0 00-1.21.83 1.11 1.11 0 00.06.57l13.29 33.29a1.05 1.05 0 001.37.57 1.17 1.17 0 00.4-.3l18.69-22.62a1 1 0 00-.08-1.34zm-9.1-4.71l-7.79 6.45-12.26-10.12zM673 261.92l-10.8-27 12.8 10.6zm2 0l1.89-15.59 12.86-2.33zm3.46-17.81l7.38-6.13 4.27 4z" class="cls-50"/><circle cx="674.47" cy="245.76" r="25.05" fill="none" stroke="#fff" stroke-miterlimit="10" transform="rotate(-22.64 674.47 245.76)"/><path d="M657.14 164.7h-13.69v-8a6.84 6.84 0 1113.68 0zm-11.81-1.88h9.94v-6.14a5 5 0 00-9.94 0z" class="cls-88"/><path d="M642.01 160.86h16.56v15.7h-16.56z" class="cls-89"/><path fill="#0030c2" d="M652.32 166.62a2 2 0 00-4.07 0 2.06 2.06 0 00.62 1.48l-.65 4.1h4.07l-.66-4.1a2 2 0 00.69-1.48z"/><rect width="89.67" height="25.49" x="243.65" y="373.49" class="cls-50" rx="1.14"/><path d="M325.57 382h-27.88a1.23 1.23 0 01-1.23-1.23 1.24 1.24 0 011.23-1.24h27.88a1.24 1.24 0 011.23 1.24 1.23 1.23 0 01-1.23 1.23z" class="cls-89"/><circle cx="251.52" cy="380.91" r="1.35" class="cls-91"/><path d="M261.07 380.91a1.35 1.35 0 11-1.35-1.35 1.36 1.36 0 011.35 1.35zM269.27 380.91a1.35 1.35 0 11-1.35-1.35 1.36 1.36 0 011.35 1.35zM277.45 380.91a1.35 1.35 0 11-1.35-1.35 1.36 1.36 0 011.35 1.35z" class="cls-91"/><circle cx="251.52" cy="387.2" r="1.35" class="cls-91"/><path d="M261.07 387.2a1.35 1.35 0 11-1.35-1.35 1.35 1.35 0 011.35 1.35zM269.27 387.2a1.35 1.35 0 11-1.35-1.35 1.35 1.35 0 011.35 1.35zM277.45 387.2a1.35 1.35 0 11-1.35-1.35 1.35 1.35 0 011.35 1.35zM252.86 393.49a1.35 1.35 0 11-1.34-1.34 1.34 1.34 0 011.34 1.34zM261.07 393.49a1.35 1.35 0 11-1.35-1.34 1.35 1.35 0 011.35 1.34zM269.27 393.49a1.35 1.35 0 11-1.35-1.34 1.35 1.35 0 011.35 1.34zM277.45 393.49a1.35 1.35 0 11-1.35-1.34 1.35 1.35 0 011.35 1.34z" class="cls-91"/><rect width="89.67" height="25.49" x="243.65" y="411.92" class="cls-50" rx="1.27"/><path d="M325.57 420.46h-27.88a1.23 1.23 0 01-1.23-1.23 1.24 1.24 0 011.23-1.24h27.88a1.24 1.24 0 011.23 1.24 1.23 1.23 0 01-1.23 1.23z" class="cls-86"/><circle cx="251.52" cy="419.34" r="1.35" class="cls-91"/><path d="M261.07 419.34a1.35 1.35 0 11-1.35-1.35 1.36 1.36 0 011.35 1.35zM269.27 419.34a1.35 1.35 0 11-1.35-1.35 1.36 1.36 0 011.35 1.35zM277.45 419.34a1.35 1.35 0 11-1.35-1.34 1.36 1.36 0 011.35 1.34z" class="cls-91"/><circle cx="251.52" cy="425.64" r="1.35" class="cls-91"/><path d="M261.07 425.64a1.35 1.35 0 01-2.7 0 1.35 1.35 0 012.7 0zM269.27 425.64a1.35 1.35 0 11-1.35-1.36 1.36 1.36 0 011.35 1.36zM277.45 425.64a1.35 1.35 0 11-1.35-1.36 1.36 1.36 0 011.35 1.36z" class="cls-91"/><circle cx="251.52" cy="431.92" r="1.35" class="cls-91"/><path d="M261.07 432a1.35 1.35 0 11-1.35-1.35 1.36 1.36 0 011.35 1.35zM269.27 432a1.35 1.35 0 11-1.35-1.35 1.36 1.36 0 011.35 1.35zM277.45 432a1.35 1.35 0 11-1.35-1.35 1.36 1.36 0 011.35 1.35z" class="cls-91"/><path d="M332 474.25l-87.11 1.88a1.27 1.27 0 01-1.28-1.27v-23.23a1.28 1.28 0 011.28-1.28H332a1.28 1.28 0 011.28 1.28V473a1.28 1.28 0 01-1.27 1.28z" class="cls-50"/><path d="M325.57 458.89h-27.88a1.23 1.23 0 01-1.23-1.23 1.24 1.24 0 011.23-1.24h27.88a1.24 1.24 0 011.23 1.24 1.23 1.23 0 01-1.23 1.23z" class="cls-88"/><circle cx="251.52" cy="457.77" r="1.35" class="cls-91"/><path d="M261.07 457.77a1.35 1.35 0 11-1.35-1.35 1.36 1.36 0 011.35 1.35zM269.27 457.77a1.35 1.35 0 11-1.35-1.35 1.36 1.36 0 011.35 1.35zM277.45 457.77a1.35 1.35 0 11-1.35-1.35 1.36 1.36 0 011.35 1.35z" class="cls-91"/><circle cx="251.52" cy="464.07" r="1.35" class="cls-91"/><path d="M261.07 464.07a1.35 1.35 0 11-1.35-1.35 1.35 1.35 0 011.35 1.35zM269.27 464.07a1.35 1.35 0 11-1.35-1.35 1.35 1.35 0 011.35 1.35zM277.45 464.07a1.35 1.35 0 11-1.35-1.35 1.35 1.35 0 011.35 1.35z" class="cls-91"/><circle cx="251.52" cy="470.36" r="1.35" class="cls-91"/><path d="M261.07 470.36a1.35 1.35 0 11-1.35-1.35 1.35 1.35 0 011.35 1.35zM269.27 470.36a1.35 1.35 0 11-1.35-1.35 1.35 1.35 0 011.35 1.35zM277.45 470.36a1.35 1.35 0 11-1.35-1.36 1.35 1.35 0 011.35 1.36z" class="cls-91"/><path d="M288.49 403.95v4.94M288.49 442.38v4.94" class="cls-92"/><path d="M352.54 331.91h142.94v105.18H352.54z" class="cls-50"/><path fill="#5979db" d="M352.54 331.91h142.94v15.21H352.54z"/><path d="M369.5 408.44s4.27-5.84 7.65-16.63 6.74-15.73 16-12.36 13.94 1.8 21.13-8.77 13-18.85 21.35-17.53 11 20.68 19.55 23.2 8.09-4.27 15.08.89 5.17 28.1 10.37 31.25z" class="cls-94"/><path d="M369.5 417.09h58.55M369.5 423.67h40.35M369.5 430.24h39.67" class="cls-95"/><path d="M461.87 339.52a2 2 0 11-2-2 2 2 0 012 2zM474.92 339.52a2 2 0 11-2-2 2 2 0 012 2z" class="cls-96"/><circle cx="485.97" cy="339.52" r="2.01" class="cls-96"/><path fill="none" stroke="#5979db" stroke-linecap="round" stroke-miterlimit="10" d="M363.21 408.44h124.51"/><path fill="#2f899e" d="M188.7 292.18s9.78 61.37 12.47 90.36 5.73 85.29 5.73 85.29 6.07 10.11 25.62 1.69c0 0-5.06 12.47-15.16 16.51s-18.86 10.79-20.91 7.42-.67-12.81-2-22.25-19.9-70.8-13.49-84.95l-15.16-51.64s-4.72 51-7.08 69.84-8.77 65.74-4.39 73.52 23.94 12.95 24.28 16.42-39.11 3.61-39.45 0 1.69-18.12 1.69-18.12-10.29-80.91.17-99.12c0 0-3.77-42.8-5.23-53.6-1.27-9.32-5.73-23.38 3.37-32.25z"/><path d="M253.53 252.41s9.54-7.65 10.06-7.26-3.33 4.48-2.54 5 6.76-.28 9.59-2 2.4 2.76 1.23 5.6-8.63 7.71-18 4.22l-4.07-.18-.37-5.24z" class="cls-99"/><path d="M158.5 195.23a17.81 17.81 0 0011.78 0s-.65 4 2.39 6.06 12.25 3.36 15.08 5.73S216 245.13 216 245.13l36.91 6.79v7.32s-43 8.44-60.89-19L187.9 268l5.9 29.32s-31.86 17-60.68-5.56l13.82-27.33s-.85-26.44-3.2-39.85-3.21-19 2.19-20 12.57-9.35 12.57-9.35z" class="cls-86"/><path d="M190.97 272.26h-37.59l8.77-51.37h37.59l-8.77 51.37z" class="cls-89"/><path d="M154.31 477.94c-1.55-2.74-1.75-10.37-1.25-19.95a54.44 54.44 0 01-14.2-.05c1 10.86 2 18.32 2 18.32s-2 14.49-1.69 18.1 39.78 3.47 39.45 0-19.94-8.67-24.31-16.42zM232.52 469.52c-19.55 8.42-25.62-1.69-25.62-1.69s-.34-6.23-.88-15.6a49.68 49.68 0 01-15.29 3c1.88 7.63 3.4 13.53 3.77 16 1.35 9.43 0 18.86 2 22.25s10.79-3.38 20.9-7.42 15.12-16.54 15.12-16.54z" class="cls-99"/><path d="M203.64 477.48l-8.58 1.81c.21 6.32 0 11.77 1.39 14.14 2 3.37 10.79-3.37 20.91-7.42s15.16-16.51 15.16-16.51c-19.55 8.42-25.62-1.69-25.62-1.69-6.63 2.71-3.26 9.67-3.26 9.67zM178.59 494.36c-.34-3.47-19.89-8.67-24.28-16.42 0-.09-.08-.18-.11-.27-5.41 1.75-6.13 7.69-6.13 7.69l-7.91-2.83-.12-.1a97.44 97.44 0 00-.94 12c.38 3.57 39.82 3.4 39.49-.07z" class="cls-100"/><path d="M174.15 251.74l4.1-1.18s8.7-5.94 10.84-5.39-4.39 3.31-4.1 4.12 8.88.28 10.62-.85-.62 4.53-2.37 6.27-8 4.5-15.22 2.53l-5.65 1.41z" class="cls-99"/><path d="M149.42 205.1c6.83 2.41 7.93 13.15 4 20.46s-16.63 29.55-16.63 29.55l38.65-4.71 1.12 8.3s-43.82 21.36-53.27 10.46 7.31-39 9.79-45.84 6.23-21.78 16.34-18.22z" class="cls-94"/><path d="M629.96 185.34l-13.72 22.4v-22.4h13.72z" class="cls-44"/><rect width="92.65" height="64.39" x="194.09" y="71.77" class="cls-44" rx="16.43" transform="rotate(-180 240.41 103.97)"/><path d="M236.62 134.47l-37.73 31.38 14.27-33.26 23.46 1.88z" class="cls-44"/><path d="M240.29 84.81a19.48 19.48 0 01-15.9 10.7c0 25.26 15.9 26.6 15.9 26.6s15.93-1.34 15.93-26.6a19.51 19.51 0 01-15.93-10.7z" class="cls-89"/></g></g></svg>